<svg xmlns="http://www.w3.org/2000/svg" xmlns:xlink="http://www.w3.org/1999/xlink" width="3000" zoomAndPan="magnify" viewBox="0 0 2250 1499.999933" height="2000" preserveAspectRatio="xMidYMid meet" version="1.0"><defs><g/></defs><g fill="#000000" fill-opacity="1"><g transform="translate(24.31156, 881.342154)"><g><path d="M 6.875 0 L 6.875 -359.34375 L 99.34375 -359.34375 C 114.144531 -359.34375 127.578125 -358.414062 139.640625 -356.5625 C 151.710938 -354.71875 162.148438 -351.242188 170.953125 -346.140625 C 179.765625 -341.035156 186.503906 -333.769531 191.171875 -324.34375 C 195.835938 -314.914062 198.171875 -302.628906 198.171875 -287.484375 L 198.171875 -155.109375 C 197.992188 -140.484375 195.523438 -128.546875 190.765625 -119.296875 C 186.015625 -110.046875 179.453125 -102.910156 171.078125 -97.890625 C 162.710938 -92.867188 152.984375 -89.390625 141.890625 -87.453125 C 130.796875 -85.515625 118.726562 -84.546875 105.6875 -84.546875 L 100.140625 -84.546875 L 100.140625 0 Z M 95.65625 -141.359375 L 102.25 -141.359375 C 105.25 -141.359375 107.410156 -142.191406 108.734375 -143.859375 C 110.054688 -145.535156 110.71875 -148.398438 110.71875 -152.453125 L 110.71875 -284.84375 C 110.71875 -289.070312 110.097656 -292.019531 108.859375 -293.6875 C 107.628906 -295.363281 105.253906 -296.203125 101.734375 -296.203125 L 95.65625 -296.203125 Z M 95.65625 -141.359375 "/></g></g></g><g fill="#000000" fill-opacity="1"><g transform="translate(225.144884, 881.342154)"><g><path d="M 114.140625 0 L 112.5625 -45.71875 L 95.390625 -45.71875 L 93.796875 0 L 0.796875 0 L 53.90625 -359.34375 L 153.78125 -359.34375 L 207.15625 0 Z M 96.96875 -96.171875 L 110.71875 -96.171875 L 105.15625 -248.375 L 102 -248.375 Z M 96.96875 -96.171875 "/></g></g></g><g fill="#000000" fill-opacity="1"><g transform="translate(446.588316, 881.342154)"><g><path d="M 105.15625 7.140625 C 72.570312 7.140625 47.957031 1.238281 31.3125 -10.5625 C 14.664062 -22.363281 6.34375 -39.894531 6.34375 -63.15625 L 6.34375 -359.34375 L 98.03125 -359.34375 L 98.03125 -73.984375 C 98.03125 -65.523438 100.492188 -61.296875 105.421875 -61.296875 C 110.359375 -61.296875 112.828125 -65.523438 112.828125 -73.984375 L 112.828125 -359.34375 L 203.71875 -359.34375 L 203.71875 -63.15625 C 203.71875 -39.894531 195.4375 -22.363281 178.875 -10.5625 C 162.320312 1.238281 137.75 7.140625 105.15625 7.140625 Z M 105.15625 7.140625 "/></g></g></g><g fill="#000000" fill-opacity="1"><g transform="translate(679.922161, 881.342154)"><g><path d="M 6.875 0 L 6.875 -359.34375 L 100.140625 -359.34375 L 100.140625 -65.796875 L 143.46875 -65.796875 L 143.46875 0 Z M 6.875 0 "/></g></g></g><g fill="#000000" fill-opacity="1"><g transform="translate(850.897247, 881.342154)"><g/></g></g><g fill="#000000" fill-opacity="1"><g transform="translate(956.871202, 881.342154)"><g><path d="M 6.875 0 L 6.875 -359.34375 L 100.140625 -359.34375 L 100.140625 -65.796875 L 143.46875 -65.796875 L 143.46875 0 Z M 6.875 0 "/></g></g></g><g fill="#000000" fill-opacity="1"><g transform="translate(1127.84634, 881.342154)"><g><path d="M 6.875 0 L 6.875 -359.34375 L 155.625 -359.34375 L 155.625 -297 L 101.203125 -297 L 101.203125 -201.078125 L 144.53125 -201.078125 L 144.53125 -155.359375 L 101.203125 -155.359375 L 101.203125 -60.515625 L 156.6875 -60.515625 L 156.6875 0 Z M 6.875 0 "/></g></g></g><g fill="#000000" fill-opacity="1"><g transform="translate(1310.711899, 881.342154)"><g><path d="M 6.875 0 L 6.875 -359.34375 L 104.375 -359.34375 L 110.96875 -311.796875 L 128.671875 -149.296875 L 133.171875 -149.546875 L 120.75 -359.34375 L 201.078125 -359.34375 L 201.078125 0 L 103.578125 0 L 96.96875 -46.5 L 76.359375 -225.921875 L 71.875 -226.1875 L 86.40625 0 Z M 6.875 0 "/></g></g></g><g fill="#000000" fill-opacity="1"><g transform="translate(1541.931882, 881.342154)"><g><path d="M 6.875 0 L 6.875 -359.34375 L 104.375 -359.34375 L 110.96875 -311.796875 L 128.671875 -149.296875 L 133.171875 -149.546875 L 120.75 -359.34375 L 201.078125 -359.34375 L 201.078125 0 L 103.578125 0 L 96.96875 -46.5 L 76.359375 -225.921875 L 71.875 -226.1875 L 86.40625 0 Z M 6.875 0 "/></g></g></g><g fill="#000000" fill-opacity="1"><g transform="translate(1773.151864, 881.342154)"><g><path d="M 5.28125 -89.578125 L 5.28125 -271.625 C 5.28125 -302.28125 14 -325.578125 31.4375 -341.515625 C 48.882812 -357.453125 74.691406 -365.421875 108.859375 -365.421875 C 143.035156 -365.421875 168.84375 -357.40625 186.28125 -341.375 C 203.71875 -325.351562 212.4375 -301.664062 212.4375 -270.3125 L 212.4375 -89.578125 C 212.4375 -58.046875 203.71875 -34.21875 186.28125 -18.09375 C 168.84375 -1.976562 143.035156 6.078125 108.859375 6.078125 C 74.691406 6.078125 49.109375 -2.023438 32.109375 -18.234375 C 15.109375 -34.441406 6.164062 -58.222656 5.28125 -89.578125 Z M 101.46875 -77.953125 C 101.46875 -72.835938 103.929688 -70.28125 108.859375 -70.28125 C 113.796875 -70.28125 116.265625 -72.835938 116.265625 -77.953125 L 116.265625 -281.9375 C 116.265625 -287.039062 113.796875 -289.59375 108.859375 -289.59375 C 103.929688 -289.59375 101.46875 -287.039062 101.46875 -281.9375 Z M 101.46875 -77.953125 "/></g></g></g><g fill="#000000" fill-opacity="1"><g transform="translate(2014.148363, 881.342154)"><g><path d="M 6.875 0 L 6.875 -359.34375 L 104.375 -359.34375 L 110.96875 -311.796875 L 128.671875 -149.296875 L 133.171875 -149.546875 L 120.75 -359.34375 L 201.078125 -359.34375 L 201.078125 0 L 103.578125 0 L 96.96875 -46.5 L 76.359375 -225.921875 L 71.875 -226.1875 L 86.40625 0 Z M 6.875 0 "/></g></g></g><g fill="#625959" fill-opacity="1"><g transform="translate(23.521811, 386.4571)"><g><path d="M 3.546875 0 L 3.546875 -185.921875 L 80.515625 -185.921875 L 80.515625 -153.65625 L 52.359375 -153.65625 L 52.359375 -104.03125 L 74.78125 -104.03125 L 74.78125 -80.390625 L 52.359375 -80.390625 L 52.359375 -31.3125 L 81.0625 -31.3125 L 81.0625 0 Z M 3.546875 0 "/></g></g></g><g fill="#625959" fill-opacity="1"><g transform="translate(153.131524, 386.4571)"><g><path d="M 53.046875 3.28125 C 43.203125 3.28125 35.039062 2.320312 28.5625 0.40625 C 22.09375 -1.5 17.035156 -4.09375 13.390625 -7.375 C 9.742188 -10.65625 7.144531 -14.390625 5.59375 -18.578125 C 4.050781 -22.773438 3.28125 -27.203125 3.28125 -31.859375 L 3.28125 -61.9375 L 46.625 -61.9375 L 46.625 -31.4375 C 46.625 -30.4375 46.914062 -29.523438 47.5 -28.703125 C 48.09375 -27.890625 49.117188 -27.484375 50.578125 -27.484375 C 51.859375 -27.484375 52.816406 -27.867188 53.453125 -28.640625 C 54.085938 -29.410156 54.40625 -30.34375 54.40625 -31.4375 C 54.40625 -35 54.289062 -38.488281 54.0625 -41.90625 C 53.84375 -45.320312 53.367188 -48.394531 52.640625 -51.125 C 51.265625 -56.875 49.390625 -61.929688 47.015625 -66.296875 C 44.648438 -70.671875 41.941406 -74.679688 38.890625 -78.328125 C 35.835938 -81.972656 32.671875 -85.457031 29.390625 -88.78125 C 26.109375 -92.113281 22.941406 -95.625 19.890625 -99.3125 C 16.835938 -103.007812 14.078125 -107.113281 11.609375 -111.625 C 9.148438 -116.132812 7.191406 -121.351562 5.734375 -127.28125 C 4.273438 -133.207031 3.546875 -140.132812 3.546875 -148.0625 L 3.546875 -153.53125 C 3.910156 -166.375 8.035156 -175.507812 15.921875 -180.9375 C 23.804688 -186.363281 34.90625 -189.078125 49.21875 -189.078125 C 60.25 -189.078125 69.269531 -187.617188 76.28125 -184.703125 C 83.300781 -181.785156 88.492188 -177.679688 91.859375 -172.390625 C 95.234375 -167.109375 96.921875 -160.957031 96.921875 -153.9375 L 96.921875 -131.515625 L 55.234375 -131.515625 L 55.234375 -154.484375 C 55.234375 -155.578125 54.890625 -156.488281 54.203125 -157.21875 C 53.523438 -157.945312 52.546875 -158.3125 51.265625 -158.3125 C 50.078125 -158.3125 49.117188 -157.945312 48.390625 -157.21875 C 47.660156 -156.488281 47.296875 -155.53125 47.296875 -154.34375 C 47.296875 -151.882812 47.523438 -149.421875 47.984375 -146.953125 C 48.441406 -144.492188 48.988281 -142.265625 49.625 -140.265625 C 50.988281 -136.160156 52.851562 -132.445312 55.21875 -129.125 C 57.59375 -125.800781 60.304688 -122.585938 63.359375 -119.484375 C 66.421875 -116.390625 69.585938 -113.128906 72.859375 -109.703125 C 76.140625 -106.285156 79.304688 -102.4375 82.359375 -98.15625 C 85.421875 -93.875 88.179688 -88.882812 90.640625 -83.1875 C 93.097656 -77.488281 95.054688 -70.832031 96.515625 -63.21875 C 97.972656 -55.613281 98.703125 -46.753906 98.703125 -36.640625 L 98.703125 -29.53125 C 98.523438 -22.144531 96.453125 -16.015625 92.484375 -11.140625 C 88.515625 -6.265625 83.160156 -2.640625 76.421875 -0.265625 C 69.679688 2.097656 61.890625 3.28125 53.046875 3.28125 Z M 53.046875 3.28125 "/></g></g></g><g fill="#625959" fill-opacity="1"><g transform="translate(299.554964, 386.4571)"><g><path d="M 17.640625 0 L 17.640625 -150.796875 L 1.09375 -150.796875 L 1.09375 -185.921875 L 82.15625 -185.921875 L 82.15625 -150.796875 L 65.625 -150.796875 L 65.625 0 Z M 17.640625 0 "/></g></g></g><g fill="#625959" fill-opacity="1"><g transform="translate(418.364275, 386.4571)"><g><path d="M 25.15625 3.28125 C 19.320312 3.28125 14.785156 2.664062 11.546875 1.4375 C 8.316406 0.207031 6.039062 -2.066406 4.71875 -5.390625 C 3.394531 -8.722656 2.734375 -13.535156 2.734375 -19.828125 C 2.734375 -26.566406 3.394531 -31.664062 4.71875 -35.125 C 6.039062 -38.59375 8.316406 -40.960938 11.546875 -42.234375 C 14.785156 -43.515625 19.320312 -44.15625 25.15625 -44.15625 C 30.988281 -44.15625 35.546875 -43.515625 38.828125 -42.234375 C 42.109375 -40.960938 44.410156 -38.59375 45.734375 -35.125 C 47.054688 -31.664062 47.71875 -26.566406 47.71875 -19.828125 C 47.71875 -13.535156 47.03125 -8.722656 45.65625 -5.390625 C 44.289062 -2.066406 41.988281 0.207031 38.75 1.4375 C 35.519531 2.664062 30.988281 3.28125 25.15625 3.28125 Z M 25.15625 3.28125 "/></g></g></g><g fill="#625959" fill-opacity="1"><g transform="translate(515.604756, 386.4571)"><g/></g></g><g fill="#625959" fill-opacity="1"><g transform="translate(1727.299701, 386.4571)"><g><path d="M 10.390625 0 L 11.34375 -148.46875 L -0.546875 -144.359375 L -0.8125 -179.359375 L 19 -185.921875 L 56.1875 -185.921875 L 56.1875 0 Z M 10.390625 0 "/></g></g></g><g fill="#625959" fill-opacity="1"><g transform="translate(1834.080712, 386.4571)"><g><path d="M 15.859375 0 C 27.253906 -13.757812 35.867188 -26.742188 41.703125 -38.953125 C 47.535156 -51.171875 50.816406 -62.75 51.546875 -73.6875 L 50.578125 -74.09375 C 49.847656 -72.632812 48.640625 -71.128906 46.953125 -69.578125 C 45.273438 -68.035156 43.613281 -67.035156 41.96875 -66.578125 C 28.570312 -66.578125 18.679688 -69.332031 12.296875 -74.84375 C 5.921875 -80.363281 2.734375 -88.910156 2.734375 -100.484375 L 2.734375 -152.015625 C 2.734375 -164.773438 6.71875 -174.160156 14.6875 -180.171875 C 22.664062 -186.191406 35.039062 -189.203125 51.8125 -189.203125 C 68.945312 -189.203125 81.613281 -186.191406 89.8125 -180.171875 C 98.019531 -174.160156 102.125 -164.914062 102.125 -152.4375 L 102.125 -97.46875 C 102.125 -77.144531 99.09375 -58.941406 93.03125 -42.859375 C 86.96875 -26.773438 77.601562 -12.488281 64.9375 0 Z M 51.953125 -93.921875 C 54.867188 -93.921875 56.328125 -96.195312 56.328125 -100.75 L 56.328125 -151.609375 C 56.328125 -156.253906 55.003906 -158.578125 52.359375 -158.578125 C 49.804688 -158.578125 48.53125 -156.253906 48.53125 -151.609375 L 48.53125 -100.75 C 48.53125 -96.195312 49.671875 -93.921875 51.953125 -93.921875 Z M 51.953125 -93.921875 "/></g></g></g><g fill="#625959" fill-opacity="1"><g transform="translate(1985.972391, 386.4571)"><g><path d="M 1.640625 0 L 32.40625 -153.65625 L 2.328125 -153.65625 L 2.328125 -185.921875 L 84.078125 -185.921875 L 84.078125 -155.984375 L 52.21875 0 Z M 1.640625 0 "/></g></g></g><g fill="#625959" fill-opacity="1"><g transform="translate(2119.136294, 386.4571)"><g><path d="M 61.109375 -112.515625 C 73.503906 -112.148438 82.640625 -109.503906 88.515625 -104.578125 C 94.398438 -99.660156 97.382812 -92.1875 97.46875 -82.15625 L 97.46875 -33.90625 C 97.46875 -21.238281 93.273438 -11.875 84.890625 -5.8125 C 76.503906 0.25 63.519531 3.28125 45.9375 3.28125 C 31.082031 3.28125 20.144531 0.429688 13.125 -5.265625 C 6.101562 -10.960938 2.546875 -19.734375 2.453125 -31.578125 L 2.59375 -60.421875 L 44.84375 -60.421875 L 44.84375 -33.90625 C 44.84375 -29.164062 46.117188 -26.796875 48.671875 -26.796875 C 51.222656 -26.796875 52.5 -28.847656 52.5 -32.953125 L 52.5 -81.34375 C 52.5 -85.53125 50.628906 -87.625 46.890625 -87.625 L 9.984375 -87.625 L 5.0625 -96.109375 L 11.078125 -185.921875 L 90.09375 -185.921875 L 90.09375 -139.578125 L 56.875 -139.578125 L 56.875 -155.171875 L 49.21875 -155.171875 L 49.21875 -112.78125 Z M 61.109375 -112.515625 "/></g></g></g><g fill="#625959" fill-opacity="1"><g transform="translate(31.79451, 1189.591596)"><g><path d="M 3.546875 0 L 3.546875 -185.921875 L 62.890625 -185.921875 L 69.046875 -67.40625 L 71.09375 -67.40625 L 77.515625 -185.921875 L 136.71875 -185.921875 L 136.71875 0 L 95.703125 0 L 102.53125 -117.296875 L 100.078125 -117.296875 L 87.21875 0 L 53.046875 0 L 39.78125 -117.296875 L 37.453125 -117.296875 L 44.703125 0 Z M 3.546875 0 "/></g></g></g><g fill="#625959" fill-opacity="1"><g transform="translate(219.0912, 1189.591596)"><g><path d="M 54.40625 3.6875 C 37.550781 3.6875 24.816406 0.632812 16.203125 -5.46875 C 7.585938 -11.570312 3.28125 -20.640625 3.28125 -32.671875 L 3.28125 -185.921875 L 50.71875 -185.921875 L 50.71875 -38.28125 C 50.71875 -33.90625 51.992188 -31.71875 54.546875 -31.71875 C 57.097656 -31.71875 58.375 -33.90625 58.375 -38.28125 L 58.375 -185.921875 L 105.40625 -185.921875 L 105.40625 -32.671875 C 105.40625 -20.640625 101.117188 -11.570312 92.546875 -5.46875 C 83.984375 0.632812 71.269531 3.6875 54.40625 3.6875 Z M 54.40625 3.6875 "/></g></g></g><g fill="#625959" fill-opacity="1"><g transform="translate(374.263599, 1189.591596)"><g><path d="M 53.046875 3.28125 C 43.203125 3.28125 35.039062 2.320312 28.5625 0.40625 C 22.09375 -1.5 17.035156 -4.09375 13.390625 -7.375 C 9.742188 -10.65625 7.144531 -14.390625 5.59375 -18.578125 C 4.050781 -22.773438 3.28125 -27.203125 3.28125 -31.859375 L 3.28125 -61.9375 L 46.625 -61.9375 L 46.625 -31.4375 C 46.625 -30.4375 46.914062 -29.523438 47.5 -28.703125 C 48.09375 -27.890625 49.117188 -27.484375 50.578125 -27.484375 C 51.859375 -27.484375 52.816406 -27.867188 53.453125 -28.640625 C 54.085938 -29.410156 54.40625 -30.34375 54.40625 -31.4375 C 54.40625 -35 54.289062 -38.488281 54.0625 -41.90625 C 53.84375 -45.320312 53.367188 -48.394531 52.640625 -51.125 C 51.265625 -56.875 49.390625 -61.929688 47.015625 -66.296875 C 44.648438 -70.671875 41.941406 -74.679688 38.890625 -78.328125 C 35.835938 -81.972656 32.671875 -85.457031 29.390625 -88.78125 C 26.109375 -92.113281 22.941406 -95.625 19.890625 -99.3125 C 16.835938 -103.007812 14.078125 -107.113281 11.609375 -111.625 C 9.148438 -116.132812 7.191406 -121.351562 5.734375 -127.28125 C 4.273438 -133.207031 3.546875 -140.132812 3.546875 -148.0625 L 3.546875 -153.53125 C 3.910156 -166.375 8.035156 -175.507812 15.921875 -180.9375 C 23.804688 -186.363281 34.90625 -189.078125 49.21875 -189.078125 C 60.25 -189.078125 69.269531 -187.617188 76.28125 -184.703125 C 83.300781 -181.785156 88.492188 -177.679688 91.859375 -172.390625 C 95.234375 -167.109375 96.921875 -160.957031 96.921875 -153.9375 L 96.921875 -131.515625 L 55.234375 -131.515625 L 55.234375 -154.484375 C 55.234375 -155.578125 54.890625 -156.488281 54.203125 -157.21875 C 53.523438 -157.945312 52.546875 -158.3125 51.265625 -158.3125 C 50.078125 -158.3125 49.117188 -157.945312 48.390625 -157.21875 C 47.660156 -156.488281 47.296875 -155.53125 47.296875 -154.34375 C 47.296875 -151.882812 47.523438 -149.421875 47.984375 -146.953125 C 48.441406 -144.492188 48.988281 -142.265625 49.625 -140.265625 C 50.988281 -136.160156 52.851562 -132.445312 55.21875 -129.125 C 57.59375 -125.800781 60.304688 -122.585938 63.359375 -119.484375 C 66.421875 -116.390625 69.585938 -113.128906 72.859375 -109.703125 C 76.140625 -106.285156 79.304688 -102.4375 82.359375 -98.15625 C 85.421875 -93.875 88.179688 -88.882812 90.640625 -83.1875 C 93.097656 -77.488281 95.054688 -70.832031 96.515625 -63.21875 C 97.972656 -55.613281 98.703125 -46.753906 98.703125 -36.640625 L 98.703125 -29.53125 C 98.523438 -22.144531 96.453125 -16.015625 92.484375 -11.140625 C 88.515625 -6.265625 83.160156 -2.640625 76.421875 -0.265625 C 69.679688 2.097656 61.890625 3.28125 53.046875 3.28125 Z M 53.046875 3.28125 "/></g></g></g><g fill="#625959" fill-opacity="1"><g transform="translate(523.284585, 1189.591596)"><g><path d="M 3.546875 0 L 3.546875 -185.921875 L 51.8125 -185.921875 L 51.8125 0 Z M 3.546875 0 "/></g></g></g><g fill="#625959" fill-opacity="1"><g transform="translate(625.691214, 1189.591596)"><g><path d="M 56.328125 3.140625 C 38.640625 3.140625 25.285156 -1.023438 16.265625 -9.359375 C 7.242188 -17.703125 2.734375 -30.03125 2.734375 -46.34375 L 2.734375 -139.859375 C 2.734375 -156.078125 7.242188 -168.332031 16.265625 -176.625 C 25.285156 -184.925781 38.640625 -189.078125 56.328125 -189.078125 C 73.546875 -189.078125 86.691406 -185.085938 95.765625 -177.109375 C 104.835938 -169.128906 109.554688 -157.257812 109.921875 -141.5 L 109.921875 -97.203125 L 60.15625 -97.203125 L 60.15625 -145.875 C 60.15625 -148.507812 58.832031 -149.828125 56.1875 -149.828125 C 53.539062 -149.828125 52.21875 -148.507812 52.21875 -145.875 L 52.21875 -40.328125 C 52.21875 -37.679688 53.539062 -36.359375 56.1875 -36.359375 C 58.832031 -36.359375 60.15625 -37.679688 60.15625 -40.328125 L 60.15625 -88.71875 L 109.921875 -88.71875 L 109.921875 -44.4375 C 109.460938 -28.757812 104.695312 -16.910156 95.625 -8.890625 C 86.5625 -0.867188 73.460938 3.140625 56.328125 3.140625 Z M 56.328125 3.140625 "/></g></g></g><g fill="#625959" fill-opacity="1"><g transform="translate(785.408843, 1189.591596)"><g/></g></g><g fill="#625959" fill-opacity="1"><g transform="translate(1850.038715, 1189.591596)"><g><path d="M 56.328125 3.140625 C 38.640625 3.140625 25.285156 -1.023438 16.265625 -9.359375 C 7.242188 -17.703125 2.734375 -30.03125 2.734375 -46.34375 L 2.734375 -139.859375 C 2.734375 -156.078125 7.242188 -168.332031 16.265625 -176.625 C 25.285156 -184.925781 38.640625 -189.078125 56.328125 -189.078125 C 73.546875 -189.078125 86.691406 -185.085938 95.765625 -177.109375 C 104.835938 -169.128906 109.554688 -157.257812 109.921875 -141.5 L 109.921875 -97.203125 L 60.15625 -97.203125 L 60.15625 -145.875 C 60.15625 -148.507812 58.832031 -149.828125 56.1875 -149.828125 C 53.539062 -149.828125 52.21875 -148.507812 52.21875 -145.875 L 52.21875 -40.328125 C 52.21875 -37.679688 53.539062 -36.359375 56.1875 -36.359375 C 58.832031 -36.359375 60.15625 -37.679688 60.15625 -40.328125 L 60.15625 -88.71875 L 109.921875 -88.71875 L 109.921875 -44.4375 C 109.460938 -28.757812 104.695312 -16.910156 95.625 -8.890625 C 86.5625 -0.867188 73.460938 3.140625 56.328125 3.140625 Z M 56.328125 3.140625 "/></g></g></g><g fill="#625959" fill-opacity="1"><g transform="translate(2009.175355, 1189.591596)"><g><path d="M 2.734375 -46.34375 L 2.734375 -140.53125 C 2.734375 -156.394531 7.242188 -168.453125 16.265625 -176.703125 C 25.285156 -184.953125 38.640625 -189.078125 56.328125 -189.078125 C 74.003906 -189.078125 87.351562 -184.925781 96.375 -176.625 C 105.40625 -168.332031 109.921875 -156.078125 109.921875 -139.859375 L 109.921875 -46.34375 C 109.921875 -30.03125 105.40625 -17.703125 96.375 -9.359375 C 87.351562 -1.023438 74.003906 3.140625 56.328125 3.140625 C 38.640625 3.140625 25.398438 -1.050781 16.609375 -9.4375 C 7.816406 -17.820312 3.191406 -30.125 2.734375 -46.34375 Z M 52.5 -40.328125 C 52.5 -37.679688 53.773438 -36.359375 56.328125 -36.359375 C 58.878906 -36.359375 60.15625 -37.679688 60.15625 -40.328125 L 60.15625 -145.875 C 60.15625 -148.507812 58.878906 -149.828125 56.328125 -149.828125 C 53.773438 -149.828125 52.5 -148.507812 52.5 -145.875 Z M 52.5 -40.328125 "/></g></g></g><g fill="#625959" fill-opacity="1"><g transform="translate(2168.858848, 1189.591596)"><g><path d="M 25.15625 3.28125 C 19.320312 3.28125 14.785156 2.664062 11.546875 1.4375 C 8.316406 0.207031 6.039062 -2.066406 4.71875 -5.390625 C 3.394531 -8.722656 2.734375 -13.535156 2.734375 -19.828125 C 2.734375 -26.566406 3.394531 -31.664062 4.71875 -35.125 C 6.039062 -38.59375 8.316406 -40.960938 11.546875 -42.234375 C 14.785156 -43.515625 19.320312 -44.15625 25.15625 -44.15625 C 30.988281 -44.15625 35.546875 -43.515625 38.828125 -42.234375 C 42.109375 -40.960938 44.410156 -38.59375 45.734375 -35.125 C 47.054688 -31.664062 47.71875 -26.566406 47.71875 -19.828125 C 47.71875 -13.535156 47.03125 -8.722656 45.65625 -5.390625 C 44.289062 -2.066406 41.988281 0.207031 38.75 1.4375 C 35.519531 2.664062 30.988281 3.28125 25.15625 3.28125 Z M 25.15625 3.28125 "/></g></g></g></svg>